<?xml version="1.0" encoding="utf-8"?>
<!-- Generator: Adobe Illustrator 25.2.3, SVG Export Plug-In . SVG Version: 6.00 Build 0)  -->
<svg version="1.1" id="Layer_1" xmlns="http://www.w3.org/2000/svg" xmlns:xlink="http://www.w3.org/1999/xlink" x="0px" y="0px"
	 viewBox="0 0 2000 2000" style="enable-background:new 0 0 2000 2000;" xml:space="preserve">
<style type="text/css">
	.st0{fill:#0F96ED;}
	.st1{fill:#112964;}
	.st2{fill:#102963;}
	.st3{fill:#0F97ED;}
</style>
<text transform="matrix(1 0 0 1 2437.1904 2265.4822)" style="font-family:'ArialMT'; font-size:72px;">Open Source Payment Infrastructure </text>
<g>
	<path class="st0" d="M1423.21,337.6l-195.63,226.2c72.96,33.87,136.27,83.53,184.8,144.23l226.1-304.75
		C1423.21,337.6,1638.47,403.28,1423.21,337.6z"/>
	<path class="st1" d="M1640.05,573.16l-177.47,211.42c34.25,64.96,53.5,138.12,53.5,215.42c0,268.04-231.51,486.11-516.06,486.11
		c-284.59,0-516.1-218.08-516.1-486.11s231.51-486.11,516.1-486.11c42.55,0,83.91,4.89,123.47,14.11l192.84-212.64
		c-96.72-41.49-203.75-64.58-316.31-64.58c-429.67,0-779.21,336.11-779.21,749.22s349.55,749.22,779.21,749.22
		c429.62,0,779.17-336.11,779.17-749.22C1779.19,841.53,1727.76,694.35,1640.05,573.16z"/>
</g>
<g>
	<g>
		<path class="st1" d="M2413.38,1186.85c0-10.1,2.71-18.01,8.13-23.72c5.42-5.71,12.42-8.57,21-8.57c5.62,0,10.68,1.34,15.19,4.03
			c4.51,2.68,7.95,6.43,10.31,11.23c2.37,4.8,3.55,10.25,3.55,16.33c0,6.17-1.25,11.69-3.74,16.56c-2.49,4.87-6.02,8.56-10.58,11.06
			c-4.57,2.5-9.49,3.76-14.78,3.76c-5.73,0-10.85-1.38-15.36-4.15c-4.51-2.77-7.93-6.54-10.25-11.33
			C2414.55,1197.25,2413.38,1192.19,2413.38,1186.85z M2421.68,1186.97c0,7.33,1.97,13.11,5.91,17.33
			c3.94,4.22,8.89,6.33,14.84,6.33c6.06,0,11.05-2.13,14.96-6.39c3.91-4.26,5.87-10.31,5.87-18.14c0-4.95-0.84-9.28-2.51-12.97
			c-1.67-3.69-4.12-6.56-7.35-8.59c-3.22-2.03-6.84-3.05-10.85-3.05c-5.7,0-10.6,1.96-14.71,5.87
			C2423.74,1171.28,2421.68,1177.81,2421.68,1186.97z"/>
		<path class="st1" d="M2480.99,1233.37v-60.97h6.81v5.73c1.6-2.24,3.42-3.92,5.44-5.04c2.02-1.12,4.47-1.68,7.35-1.68
			c3.76,0,7.08,0.97,9.96,2.91c2.88,1.94,5.05,4.67,6.52,8.2c1.47,3.53,2.2,7.39,2.2,11.6c0,4.51-0.81,8.57-2.43,12.18
			c-1.62,3.61-3.97,6.38-7.06,8.3c-3.09,1.92-6.33,2.88-9.73,2.88c-2.49,0-4.73-0.53-6.7-1.58c-1.98-1.05-3.6-2.38-4.88-3.98v21.46
			H2480.99z M2487.76,1194.69c0,5.67,1.15,9.86,3.44,12.58c2.3,2.71,5.08,4.07,8.34,4.07c3.32,0,6.16-1.4,8.53-4.21
			c2.37-2.81,3.55-7.16,3.55-13.05c0-5.62-1.16-9.82-3.47-12.62c-2.31-2.79-5.07-4.19-8.28-4.19c-3.18,0-6,1.49-8.45,4.46
			C2488.98,1184.7,2487.76,1189.02,2487.76,1194.69z"/>
		<path class="st1" d="M2558.44,1202.29l7.72,0.95c-1.22,4.51-3.47,8.01-6.77,10.5c-3.29,2.49-7.5,3.74-12.62,3.74
			c-6.45,0-11.56-1.99-15.34-5.96c-3.78-3.97-5.67-9.54-5.67-16.71c0-7.42,1.91-13.17,5.73-17.27c3.82-4.09,8.77-6.14,14.86-6.14
			c5.89,0,10.71,2.01,14.44,6.02s5.6,9.66,5.6,16.93c0,0.44-0.01,1.11-0.04,1.99h-32.87c0.28,4.84,1.65,8.55,4.11,11.12
			c2.46,2.57,5.53,3.86,9.21,3.86c2.74,0,5.08-0.72,7.01-2.16C2555.77,1207.74,2557.31,1205.44,2558.44,1202.29z M2533.91,1190.21
			h24.61c-0.33-3.71-1.27-6.49-2.82-8.34c-2.38-2.88-5.46-4.32-9.26-4.32c-3.43,0-6.32,1.15-8.65,3.44
			C2535.45,1183.29,2534.16,1186.36,2533.91,1190.21z"/>
		<path class="st1" d="M2575.54,1216.48v-44.08h6.72v6.27c3.24-4.84,7.91-7.26,14.03-7.26c2.66,0,5.1,0.48,7.33,1.43
			c2.23,0.96,3.89,2.21,5,3.76c1.11,1.55,1.88,3.39,2.32,5.52c0.28,1.38,0.42,3.8,0.42,7.26v27.1h-7.47v-26.81
			c0-3.04-0.29-5.32-0.87-6.83s-1.61-2.71-3.09-3.61c-1.48-0.9-3.22-1.35-5.21-1.35c-3.18,0-5.93,1.01-8.24,3.03
			c-2.31,2.02-3.47,5.85-3.47,11.5v24.07H2575.54z"/>
		<path class="st1" d="M2644.64,1196.93l7.6-0.66c0.36,3.04,1.2,5.54,2.51,7.49c1.31,1.95,3.35,3.53,6.12,4.73
			c2.77,1.2,5.88,1.81,9.34,1.81c3.07,0,5.78-0.46,8.13-1.37c2.35-0.91,4.1-2.17,5.25-3.76c1.15-1.59,1.72-3.33,1.72-5.21
			c0-1.91-0.55-3.58-1.66-5c-1.11-1.42-2.93-2.62-5.48-3.59c-1.63-0.64-5.24-1.63-10.83-2.97c-5.59-1.34-9.5-2.61-11.75-3.8
			c-2.91-1.52-5.07-3.41-6.5-5.67c-1.43-2.25-2.14-4.78-2.14-7.58c0-3.07,0.87-5.94,2.61-8.61s4.29-4.7,7.64-6.08
			c3.35-1.38,7.07-2.08,11.16-2.08c4.51,0,8.49,0.73,11.93,2.18c3.44,1.45,6.09,3.59,7.95,6.41c1.85,2.82,2.85,6.02,2.99,9.59
			l-7.72,0.58c-0.42-3.84-1.82-6.75-4.21-8.71c-2.39-1.96-5.93-2.95-10.6-2.95c-4.87,0-8.42,0.89-10.65,2.68
			c-2.23,1.79-3.34,3.94-3.34,6.45c0,2.19,0.79,3.98,2.37,5.4c1.55,1.41,5.6,2.86,12.14,4.34c6.54,1.48,11.03,2.77,13.47,3.88
			c3.54,1.63,6.16,3.7,7.84,6.21c1.69,2.5,2.53,5.39,2.53,8.65c0,3.24-0.93,6.29-2.78,9.15c-1.85,2.86-4.52,5.09-7.99,6.68
			c-3.47,1.59-7.38,2.39-11.73,2.39c-5.51,0-10.12-0.8-13.84-2.41c-3.72-1.6-6.64-4.02-8.76-7.24
			C2645.87,1204.65,2644.75,1201,2644.64,1196.93z"/>
		<path class="st1" d="M2700.34,1194.44c0-8.16,2.27-14.21,6.81-18.14c3.79-3.26,8.41-4.9,13.86-4.9c6.06,0,11.01,1.99,14.86,5.96
			c3.85,3.97,5.77,9.46,5.77,16.46c0,5.67-0.85,10.13-2.55,13.38c-1.7,3.25-4.18,5.78-7.43,7.58c-3.25,1.8-6.8,2.7-10.65,2.7
			c-6.17,0-11.16-1.98-14.96-5.94C2702.24,1207.59,2700.34,1201.89,2700.34,1194.44z M2708.02,1194.44c0,5.64,1.23,9.87,3.69,12.68
			c2.46,2.81,5.56,4.21,9.3,4.21c3.71,0,6.79-1.41,9.26-4.23c2.46-2.82,3.69-7.12,3.69-12.91c0-5.45-1.24-9.58-3.71-12.39
			c-2.48-2.81-5.55-4.21-9.23-4.21c-3.74,0-6.83,1.4-9.3,4.19C2709.25,1184.58,2708.02,1188.8,2708.02,1194.44z"/>
		<path class="st1" d="M2779.28,1216.48v-6.47c-3.43,4.98-8.09,7.47-13.99,7.47c-2.6,0-5.03-0.5-7.28-1.49
			c-2.26-1-3.93-2.25-5.02-3.76c-1.09-1.51-1.86-3.35-2.3-5.54c-0.3-1.47-0.46-3.79-0.46-6.97v-27.31h7.47v24.45
			c0,3.9,0.15,6.53,0.46,7.88c0.47,1.97,1.47,3.51,2.99,4.63c1.52,1.12,3.4,1.68,5.64,1.68s4.34-0.57,6.31-1.72
			c1.96-1.15,3.35-2.71,4.17-4.69c0.82-1.98,1.22-4.85,1.22-8.61v-23.62h7.47v44.08H2779.28z"/>
		<path class="st1" d="M2797.59,1216.48v-44.08h6.72v6.68c1.72-3.13,3.3-5.19,4.75-6.18c1.45-1,3.05-1.49,4.79-1.49
			c2.52,0,5.08,0.8,7.68,2.41l-2.57,6.93c-1.83-1.08-3.65-1.62-5.48-1.62c-1.63,0-3.1,0.49-4.4,1.47c-1.3,0.98-2.23,2.34-2.78,4.09
			c-0.83,2.66-1.25,5.56-1.25,8.72v23.08H2797.59z"/>
		<path class="st1" d="M2854.74,1200.34l7.35,0.95c-0.8,5.06-2.86,9.03-6.16,11.89c-3.31,2.86-7.37,4.3-12.18,4.3
			c-6.03,0-10.88-1.97-14.55-5.91c-3.67-3.94-5.5-9.59-5.5-16.96c0-4.76,0.79-8.92,2.37-12.49s3.98-6.25,7.2-8.03
			c3.22-1.78,6.73-2.68,10.52-2.68c4.79,0,8.7,1.21,11.75,3.63c3.04,2.42,4.99,5.86,5.85,10.31l-7.26,1.12
			c-0.69-2.96-1.92-5.19-3.67-6.68c-1.76-1.49-3.88-2.24-6.37-2.24c-3.76,0-6.82,1.35-9.17,4.05c-2.35,2.7-3.53,6.97-3.53,12.8
			c0,5.92,1.13,10.22,3.4,12.91c2.27,2.68,5.23,4.03,8.88,4.03c2.93,0,5.38-0.9,7.35-2.7
			C2852.97,1206.84,2854.21,1204.07,2854.74,1200.34z"/>
		<path class="st1" d="M2898.65,1202.29l7.72,0.95c-1.22,4.51-3.47,8.01-6.77,10.5s-7.5,3.74-12.62,3.74
			c-6.45,0-11.56-1.99-15.33-5.96c-3.78-3.97-5.67-9.54-5.67-16.71c0-7.42,1.91-13.17,5.73-17.27c3.82-4.09,8.77-6.14,14.86-6.14
			c5.89,0,10.71,2.01,14.44,6.02c3.73,4.01,5.6,9.66,5.6,16.93c0,0.44-0.01,1.11-0.04,1.99h-32.87c0.28,4.84,1.65,8.55,4.11,11.12
			c2.46,2.57,5.53,3.86,9.21,3.86c2.74,0,5.08-0.72,7.01-2.16C2895.98,1207.74,2897.51,1205.44,2898.65,1202.29z M2874.12,1190.21
			h24.61c-0.33-3.71-1.27-6.49-2.82-8.34c-2.38-2.88-5.46-4.32-9.26-4.32c-3.43,0-6.32,1.15-8.65,3.44
			C2875.66,1183.29,2874.37,1186.36,2874.12,1190.21z"/>
		<path class="st1" d="M2940.32,1216.48v-60.84h22.95c4.04,0,7.12,0.19,9.25,0.58c2.99,0.5,5.49,1.45,7.51,2.84
			c2.02,1.4,3.64,3.36,4.88,5.87c1.23,2.52,1.85,5.29,1.85,8.3c0,5.17-1.65,9.55-4.94,13.14c-3.29,3.58-9.24,5.38-17.85,5.38h-15.61
			v24.74H2940.32z M2948.37,1184.56h15.73c5.2,0,8.89-0.97,11.08-2.91c2.19-1.94,3.28-4.66,3.28-8.18c0-2.54-0.64-4.72-1.93-6.54
			c-1.29-1.81-2.98-3.01-5.08-3.59c-1.36-0.36-3.86-0.54-7.51-0.54h-15.56V1184.56z"/>
		<path class="st1" d="M3024.82,1211.04c-2.77,2.35-5.43,4.01-7.99,4.98c-2.56,0.97-5.31,1.45-8.24,1.45
			c-4.84,0-8.56-1.18-11.16-3.55c-2.6-2.37-3.9-5.39-3.9-9.07c0-2.16,0.49-4.13,1.47-5.91c0.98-1.79,2.27-3.22,3.86-4.3
			s3.38-1.89,5.38-2.45c1.47-0.39,3.68-0.76,6.64-1.12c6.03-0.72,10.47-1.58,13.32-2.57c0.03-1.02,0.04-1.67,0.04-1.95
			c0-3.04-0.71-5.19-2.12-6.43c-1.91-1.69-4.75-2.53-8.51-2.53c-3.51,0-6.11,0.62-7.78,1.85s-2.91,3.41-3.71,6.54l-7.3-1
			c0.66-3.13,1.76-5.65,3.28-7.57c1.52-1.92,3.72-3.4,6.6-4.44c2.88-1.04,6.21-1.56,10-1.56c3.76,0,6.82,0.44,9.17,1.33
			c2.35,0.89,4.08,2,5.19,3.34c1.11,1.34,1.88,3.04,2.32,5.08c0.25,1.27,0.37,3.57,0.37,6.89v9.96c0,6.95,0.16,11.34,0.48,13.18
			c0.32,1.84,0.95,3.6,1.89,5.29h-7.8C3025.54,1214.93,3025.04,1213.12,3024.82,1211.04z M3024.2,1194.36
			c-2.71,1.11-6.78,2.05-12.2,2.82c-3.07,0.44-5.24,0.94-6.52,1.49c-1.27,0.55-2.26,1.36-2.95,2.43c-0.69,1.07-1.04,2.25-1.04,3.55
			c0,1.99,0.75,3.65,2.26,4.98s3.71,1.99,6.62,1.99c2.88,0,5.44-0.63,7.68-1.89c2.24-1.26,3.89-2.98,4.94-5.17
			c0.8-1.69,1.2-4.18,1.2-7.47V1194.36z"/>
		<path class="st1" d="M3043,1233.46l-0.83-7.01c1.63,0.44,3.06,0.66,4.27,0.66c1.66,0,2.99-0.28,3.98-0.83
			c1-0.55,1.81-1.33,2.45-2.32c0.47-0.75,1.23-2.6,2.28-5.56c0.14-0.42,0.36-1.02,0.66-1.83l-16.73-44.16h8.05l9.17,25.52
			c1.19,3.24,2.25,6.64,3.2,10.21c0.86-3.43,1.88-6.78,3.07-10.04l9.42-25.69h7.47l-16.77,44.82c-1.8,4.84-3.2,8.18-4.19,10
			c-1.33,2.46-2.85,4.27-4.56,5.42c-1.72,1.15-3.76,1.72-6.14,1.72C3046.37,1234.37,3044.77,1234.06,3043,1233.46z"/>
		<path class="st1" d="M3085.83,1216.48v-44.08h6.68v6.18c1.38-2.16,3.22-3.89,5.52-5.21s4.91-1.97,7.84-1.97
			c3.26,0,5.94,0.68,8.03,2.03c2.09,1.36,3.56,3.25,4.42,5.69c3.49-5.15,8.02-7.72,13.61-7.72c4.37,0,7.73,1.21,10.08,3.63
			s3.53,6.15,3.53,11.19v30.26h-7.43v-27.77c0-2.99-0.24-5.14-0.73-6.45c-0.48-1.31-1.36-2.37-2.64-3.17
			c-1.27-0.8-2.77-1.2-4.48-1.2c-3.1,0-5.67,1.03-7.72,3.09c-2.05,2.06-3.07,5.36-3.07,9.9v25.61h-7.47v-28.64
			c0-3.32-0.61-5.81-1.83-7.47c-1.22-1.66-3.21-2.49-5.98-2.49c-2.1,0-4.05,0.55-5.83,1.66c-1.79,1.11-3.08,2.73-3.88,4.86
			c-0.8,2.13-1.2,5.2-1.2,9.21v22.87H3085.83z"/>
		<path class="st1" d="M3186.81,1202.29l7.72,0.95c-1.22,4.51-3.47,8.01-6.77,10.5s-7.5,3.74-12.62,3.74
			c-6.45,0-11.56-1.99-15.33-5.96c-3.78-3.97-5.67-9.54-5.67-16.71c0-7.42,1.91-13.17,5.73-17.27c3.82-4.09,8.77-6.14,14.86-6.14
			c5.89,0,10.71,2.01,14.44,6.02c3.73,4.01,5.6,9.66,5.6,16.93c0,0.44-0.01,1.11-0.04,1.99h-32.87c0.28,4.84,1.65,8.55,4.11,11.12
			c2.46,2.57,5.53,3.86,9.21,3.86c2.74,0,5.08-0.72,7.01-2.16C3184.14,1207.74,3185.68,1205.44,3186.81,1202.29z M3162.28,1190.21
			h24.61c-0.33-3.71-1.27-6.49-2.82-8.34c-2.38-2.88-5.46-4.32-9.26-4.32c-3.43,0-6.32,1.15-8.65,3.44
			C3163.82,1183.29,3162.53,1186.36,3162.28,1190.21z"/>
		<path class="st1" d="M3203.91,1216.48v-44.08h6.72v6.27c3.24-4.84,7.91-7.26,14.03-7.26c2.66,0,5.1,0.48,7.33,1.43
			c2.23,0.96,3.89,2.21,5,3.76c1.11,1.55,1.88,3.39,2.32,5.52c0.28,1.38,0.42,3.8,0.42,7.26v27.1h-7.47v-26.81
			c0-3.04-0.29-5.32-0.87-6.83c-0.58-1.51-1.61-2.71-3.09-3.61c-1.48-0.9-3.22-1.35-5.21-1.35c-3.18,0-5.93,1.01-8.24,3.03
			s-3.46,5.85-3.46,11.5v24.07H3203.91z"/>
		<path class="st1" d="M3267.49,1209.8l1.08,6.6c-2.1,0.44-3.98,0.66-5.64,0.66c-2.71,0-4.81-0.43-6.31-1.29
			c-1.49-0.86-2.55-1.99-3.15-3.38c-0.61-1.4-0.91-4.34-0.91-8.82v-25.36h-5.48v-5.81h5.48v-10.92l7.43-4.48v15.4h7.51v5.81h-7.51
			v25.77c0,2.13,0.13,3.5,0.39,4.11c0.26,0.61,0.69,1.09,1.29,1.45c0.59,0.36,1.45,0.54,2.55,0.54
			C3265.04,1210.09,3266.14,1209.99,3267.49,1209.8z"/>
		<path class="st1" d="M3300.74,1216.48v-60.84h8.05v60.84H3300.74z"/>
		<path class="st1" d="M3322.03,1216.48v-44.08h6.72v6.27c3.24-4.84,7.91-7.26,14.03-7.26c2.66,0,5.1,0.48,7.33,1.43
			c2.23,0.96,3.89,2.21,5,3.76c1.11,1.55,1.88,3.39,2.32,5.52c0.28,1.38,0.42,3.8,0.42,7.26v27.1h-7.47v-26.81
			c0-3.04-0.29-5.32-0.87-6.83c-0.58-1.51-1.61-2.71-3.09-3.61c-1.48-0.9-3.22-1.35-5.21-1.35c-3.18,0-5.93,1.01-8.24,3.03
			s-3.46,5.85-3.46,11.5v24.07H3322.03z"/>
		<path class="st1" d="M3371.09,1216.48v-38.27h-6.6v-5.81h6.6v-4.69c0-2.96,0.26-5.16,0.79-6.6c0.72-1.94,1.99-3.51,3.8-4.71
			c1.81-1.2,4.35-1.81,7.62-1.81c2.1,0,4.43,0.25,6.97,0.75l-1.12,6.52c-1.55-0.28-3.02-0.42-4.4-0.42c-2.27,0-3.88,0.48-4.81,1.45
			c-0.94,0.97-1.41,2.78-1.41,5.44v4.07h8.59v5.81h-8.59v38.27H3371.09z"/>
		<path class="st1" d="M3392.83,1216.48v-44.08h6.72v6.68c1.71-3.13,3.3-5.19,4.75-6.18c1.45-1,3.05-1.49,4.79-1.49
			c2.52,0,5.08,0.8,7.68,2.41l-2.57,6.93c-1.83-1.08-3.65-1.62-5.48-1.62c-1.63,0-3.1,0.49-4.4,1.47c-1.3,0.98-2.23,2.34-2.78,4.09
			c-0.83,2.66-1.25,5.56-1.25,8.72v23.08H3392.83z"/>
		<path class="st1" d="M3449.99,1211.04c-2.77,2.35-5.43,4.01-7.99,4.98c-2.56,0.97-5.31,1.45-8.24,1.45
			c-4.84,0-8.56-1.18-11.16-3.55c-2.6-2.37-3.9-5.39-3.9-9.07c0-2.16,0.49-4.13,1.47-5.91c0.98-1.79,2.27-3.22,3.86-4.3
			s3.38-1.89,5.38-2.45c1.47-0.39,3.68-0.76,6.64-1.12c6.03-0.72,10.47-1.58,13.32-2.57c0.03-1.02,0.04-1.67,0.04-1.95
			c0-3.04-0.71-5.19-2.12-6.43c-1.91-1.69-4.75-2.53-8.51-2.53c-3.51,0-6.11,0.62-7.78,1.85s-2.91,3.41-3.71,6.54l-7.3-1
			c0.66-3.13,1.76-5.65,3.28-7.57c1.52-1.92,3.72-3.4,6.6-4.44c2.88-1.04,6.21-1.56,10-1.56c3.76,0,6.82,0.44,9.17,1.33
			c2.35,0.89,4.08,2,5.19,3.34c1.11,1.34,1.88,3.04,2.32,5.08c0.25,1.27,0.37,3.57,0.37,6.89v9.96c0,6.95,0.16,11.34,0.48,13.18
			c0.32,1.84,0.95,3.6,1.89,5.29h-7.8C3450.7,1214.93,3450.21,1213.12,3449.99,1211.04z M3449.36,1194.36
			c-2.71,1.11-6.78,2.05-12.2,2.82c-3.07,0.44-5.24,0.94-6.52,1.49c-1.27,0.55-2.26,1.36-2.95,2.43c-0.69,1.07-1.04,2.25-1.04,3.55
			c0,1.99,0.75,3.65,2.26,4.98s3.71,1.99,6.62,1.99c2.88,0,5.44-0.63,7.68-1.89c2.24-1.26,3.89-2.98,4.94-5.17
			c0.8-1.69,1.2-4.18,1.2-7.47V1194.36z"/>
		<path class="st1" d="M3465.51,1203.32l7.39-1.16c0.42,2.96,1.57,5.23,3.47,6.81c1.9,1.58,4.54,2.37,7.95,2.37
			c3.43,0,5.98-0.7,7.64-2.1s2.49-3.04,2.49-4.92c0-1.69-0.73-3.02-2.2-3.98c-1.02-0.66-3.57-1.51-7.64-2.53
			c-5.48-1.38-9.28-2.58-11.39-3.59c-2.12-1.01-3.72-2.41-4.81-4.19c-1.09-1.78-1.64-3.76-1.64-5.91c0-1.96,0.45-3.78,1.35-5.46
			c0.9-1.67,2.12-3.06,3.67-4.17c1.16-0.86,2.75-1.58,4.75-2.18s4.16-0.89,6.45-0.89c3.46,0,6.5,0.5,9.11,1.49
			c2.61,1,4.54,2.34,5.79,4.05c1.24,1.7,2.1,3.98,2.57,6.83l-7.3,1c-0.33-2.27-1.29-4.04-2.88-5.31c-1.59-1.27-3.84-1.91-6.75-1.91
			c-3.43,0-5.88,0.57-7.35,1.7c-1.47,1.13-2.2,2.46-2.2,3.98c0,0.97,0.3,1.84,0.91,2.61c0.61,0.8,1.56,1.47,2.86,1.99
			c0.75,0.28,2.95,0.91,6.6,1.91c5.29,1.41,8.97,2.57,11.06,3.47c2.09,0.9,3.73,2.21,4.92,3.92c1.19,1.72,1.78,3.85,1.78,6.39
			c0,2.49-0.73,4.83-2.18,7.04c-1.45,2.2-3.55,3.9-6.29,5.1c-2.74,1.2-5.84,1.81-9.3,1.81c-5.73,0-10.09-1.19-13.09-3.57
			C3468.25,1211.53,3466.34,1208,3465.51,1203.32z"/>
		<path class="st1" d="M3527.31,1209.8l1.08,6.6c-2.1,0.44-3.98,0.66-5.64,0.66c-2.71,0-4.81-0.43-6.31-1.29
			c-1.49-0.86-2.55-1.99-3.15-3.38c-0.61-1.4-0.91-4.34-0.91-8.82v-25.36h-5.48v-5.81h5.48v-10.92l7.43-4.48v15.4h7.51v5.81h-7.51
			v25.77c0,2.13,0.13,3.5,0.39,4.11c0.26,0.61,0.69,1.09,1.29,1.45c0.59,0.36,1.45,0.54,2.55,0.54
			C3524.86,1210.09,3525.95,1209.99,3527.31,1209.8z"/>
		<path class="st1" d="M3534.53,1216.48v-44.08h6.72v6.68c1.71-3.13,3.3-5.19,4.75-6.18c1.45-1,3.05-1.49,4.79-1.49
			c2.52,0,5.08,0.8,7.68,2.41l-2.57,6.93c-1.83-1.08-3.65-1.62-5.48-1.62c-1.63,0-3.1,0.49-4.4,1.47c-1.3,0.98-2.23,2.34-2.78,4.09
			c-0.83,2.66-1.25,5.56-1.25,8.72v23.08H3534.53z"/>
		<path class="st1" d="M3591.81,1216.48v-6.47c-3.43,4.98-8.09,7.47-13.99,7.47c-2.6,0-5.03-0.5-7.28-1.49s-3.93-2.25-5.02-3.76
			c-1.09-1.51-1.86-3.35-2.3-5.54c-0.3-1.47-0.46-3.79-0.46-6.97v-27.31h7.47v24.45c0,3.9,0.15,6.53,0.46,7.88
			c0.47,1.97,1.47,3.51,2.99,4.63c1.52,1.12,3.4,1.68,5.64,1.68s4.34-0.57,6.31-1.72c1.96-1.15,3.35-2.71,4.17-4.69
			c0.82-1.98,1.22-4.85,1.22-8.61v-23.62h7.47v44.08H3591.81z"/>
		<path class="st1" d="M3638.95,1200.34l7.35,0.95c-0.8,5.06-2.86,9.03-6.16,11.89c-3.31,2.86-7.37,4.3-12.18,4.3
			c-6.03,0-10.88-1.97-14.55-5.91c-3.67-3.94-5.5-9.59-5.5-16.96c0-4.76,0.79-8.92,2.37-12.49c1.58-3.57,3.98-6.25,7.2-8.03
			c3.22-1.78,6.73-2.68,10.52-2.68c4.79,0,8.7,1.21,11.75,3.63c3.04,2.42,4.99,5.86,5.85,10.31l-7.26,1.12
			c-0.69-2.96-1.92-5.19-3.67-6.68s-3.88-2.24-6.37-2.24c-3.76,0-6.82,1.35-9.17,4.05c-2.35,2.7-3.53,6.97-3.53,12.8
			c0,5.92,1.13,10.22,3.4,12.91c2.27,2.68,5.23,4.03,8.88,4.03c2.93,0,5.38-0.9,7.35-2.7
			C3637.18,1206.84,3638.43,1204.07,3638.95,1200.34z"/>
		<path class="st1" d="M3669,1209.8l1.08,6.6c-2.1,0.44-3.98,0.66-5.64,0.66c-2.71,0-4.81-0.43-6.31-1.29
			c-1.49-0.86-2.55-1.99-3.15-3.38c-0.61-1.4-0.91-4.34-0.91-8.82v-25.36h-5.48v-5.81h5.48v-10.92l7.43-4.48v15.4h7.51v5.81h-7.51
			v25.77c0,2.13,0.13,3.5,0.39,4.11c0.26,0.61,0.69,1.09,1.29,1.45c0.59,0.36,1.45,0.54,2.55,0.54
			C3666.55,1210.09,3667.65,1209.99,3669,1209.8z"/>
		<path class="st1" d="M3705.19,1216.48v-6.47c-3.43,4.98-8.09,7.47-13.99,7.47c-2.6,0-5.03-0.5-7.28-1.49s-3.93-2.25-5.02-3.76
			c-1.09-1.51-1.86-3.35-2.3-5.54c-0.3-1.47-0.46-3.79-0.46-6.97v-27.31h7.47v24.45c0,3.9,0.15,6.53,0.46,7.88
			c0.47,1.97,1.47,3.51,2.99,4.63c1.52,1.12,3.4,1.68,5.64,1.68s4.34-0.57,6.31-1.72c1.96-1.15,3.35-2.71,4.17-4.69
			c0.82-1.98,1.22-4.85,1.22-8.61v-23.62h7.47v44.08H3705.19z"/>
		<path class="st1" d="M3723.5,1216.48v-44.08h6.72v6.68c1.71-3.13,3.3-5.19,4.75-6.18c1.45-1,3.05-1.49,4.79-1.49
			c2.52,0,5.08,0.8,7.68,2.41l-2.57,6.93c-1.83-1.08-3.65-1.62-5.48-1.62c-1.63,0-3.1,0.49-4.4,1.47c-1.3,0.98-2.23,2.34-2.78,4.09
			c-0.83,2.66-1.25,5.56-1.25,8.72v23.08H3723.5z"/>
		<path class="st1" d="M3782.06,1202.29l7.72,0.95c-1.22,4.51-3.47,8.01-6.77,10.5s-7.5,3.74-12.62,3.74
			c-6.45,0-11.56-1.99-15.33-5.96c-3.78-3.97-5.67-9.54-5.67-16.71c0-7.42,1.91-13.17,5.73-17.27c3.82-4.09,8.77-6.14,14.86-6.14
			c5.89,0,10.71,2.01,14.44,6.02c3.73,4.01,5.6,9.66,5.6,16.93c0,0.44-0.01,1.11-0.04,1.99h-32.87c0.28,4.84,1.65,8.55,4.11,11.12
			c2.46,2.57,5.53,3.86,9.21,3.86c2.74,0,5.08-0.72,7.01-2.16C3779.39,1207.74,3780.92,1205.44,3782.06,1202.29z M3757.53,1190.21
			h24.61c-0.33-3.71-1.27-6.49-2.82-8.34c-2.38-2.88-5.46-4.32-9.26-4.32c-3.43,0-6.32,1.15-8.65,3.44
			C3759.07,1183.29,3757.78,1186.36,3757.53,1190.21z"/>
	</g>
	<g>
		<path class="st2" d="M2718.73,882.58h57.39l38.42,118.1l43.16-118.1h48.85l45.06,120.47l39.84-120.47h56.92l-62.4,187.65
			c-1.54,4.64-5.88,7.77-10.77,7.77h-37.31c-4.61,0-8.77-2.79-10.51-7.07l-43.84-107.71l-39.71,107.37
			c-1.65,4.45-5.89,7.41-10.64,7.41h-38.12c-4.82,0-9.12-3.05-10.71-7.6L2718.73,882.58z"/>
		<path class="st2" d="M3046.5,1074.66V951.58c0-39.95,32.38-72.33,72.33-72.33h60.71c39.95,0,72.33,32.38,72.33,72.33v123.08
			h-58.81v-111.5c0-23.55-19.09-42.65-42.65-42.65h-5.35c-23.35,0-42.36,18.78-42.64,42.12l-1.38,112.03H3046.5z"/>
		<polygon class="st3" points="3671.02,884.6 3731.69,884.6 3788.93,1008.84 3842.24,884.6 3895.37,884.6 3783.19,1143.57 
			3723.67,1143.57 3759.24,1065.78 		"/>
		<path class="st0" d="M2616.52,786.24l-46.44,53.7c17.32,8.04,32.35,19.83,43.87,34.24l53.67-72.35
			C2616.52,786.24,2667.63,801.83,2616.52,786.24z"/>
		<path class="st1" d="M2668,842.16l-42.13,50.19c8.13,15.42,12.7,32.79,12.7,51.14c0,63.63-54.96,115.4-122.51,115.4
			c-67.56,0-122.52-51.77-122.52-115.4s54.96-115.4,122.52-115.4c10.1,0,19.92,1.16,29.31,3.35l45.78-50.48
			c-22.96-9.85-48.37-15.33-75.09-15.33c-102,0-184.98,79.79-184.98,177.86s82.98,177.86,184.98,177.86
			c101.99,0,184.97-79.79,184.97-177.86C2701.03,905.87,2688.82,870.93,2668,842.16z"/>
		<path class="st3" d="M3385.07,883.27c-23.8,0-45.61,8.66-62.45,22.99v-22.99h-49.07v251.85h49.07v-81.81
			c16.85,14.33,38.65,22.99,62.45,22.99c53.22,0,96.52-43.3,96.52-96.52C3481.59,926.57,3438.29,883.27,3385.07,883.27z
			 M3385.07,1031.91c-28.74,0-52.12-23.38-52.12-52.12c0-28.74,23.38-52.12,52.12-52.12s52.12,23.38,52.12,52.12
			C3437.19,1008.53,3413.81,1031.91,3385.07,1031.91z"/>
		<path class="st3" d="M3696.38,979.43c0-54.49-46.08-98.83-102.73-98.83s-102.73,44.33-102.73,98.83
			c0,54.49,46.08,98.83,102.73,98.83c23.44,0,45.06-7.6,62.37-20.36v14.4h40.36v-85.53c0-0.94-0.05-1.86-0.11-2.78
			C3696.34,982.47,3696.38,980.95,3696.38,979.43z M3593.65,1032.79c-30.59,0-55.47-23.94-55.47-53.37
			c0-29.43,24.88-53.37,55.47-53.37s55.47,23.94,55.47,53.37C3649.12,1008.85,3624.24,1032.79,3593.65,1032.79z"/>
	</g>
</g>
</svg>
