<svg xmlns="http://www.w3.org/2000/svg" xmlns:xlink="http://www.w3.org/1999/xlink" width="1283" zoomAndPan="magnify" viewBox="0 0 962.25 246.749995" height="329" preserveAspectRatio="xMidYMid meet" version="1.0"><defs><g/><clipPath id="369a2da86f"><path d="M 61 16.097656 L 166.367188 16.097656 L 166.367188 115 L 61 115 Z M 61 16.097656 " clip-rule="nonzero"/></clipPath><clipPath id="39b6fd3d10"><path d="M 18.019531 58 L 166.367188 58 L 166.367188 230.378906 L 18.019531 230.378906 Z M 18.019531 58 " clip-rule="nonzero"/></clipPath><clipPath id="d9e7859511"><path d="M 127.84375 122.410156 L 18.019531 58.953125 L 18.019531 100.148438 L 136.5 168.609375 L 92.195312 194.207031 L 18.019531 151.347656 L 18.019531 187.523438 L 92.195312 230.378906 L 166.367188 187.523438 L 166.367188 144.667969 Z M 127.84375 122.410156 " clip-rule="evenodd"/></clipPath><linearGradient x1="88.800079" gradientTransform="matrix(0.0138801, 0, 0, 0.0138906, 18.020209, 16.096621)" y1="3024.586453" x2="9252.088274" gradientUnits="userSpaceOnUse" y2="16409.353037" id="75e870dc97"><stop stop-opacity="1" stop-color="rgb(0%, 27.845764%, 56.47583%)" offset="0"/><stop stop-opacity="1" stop-color="rgb(0.0335693%, 27.993774%, 56.62384%)" offset="0.0078125"/><stop stop-opacity="1" stop-color="rgb(0.100708%, 28.289795%, 56.919861%)" offset="0.015625"/><stop stop-opacity="1" stop-color="rgb(0.167847%, 28.585815%, 57.215881%)" offset="0.0234375"/><stop stop-opacity="1" stop-color="rgb(0.233459%, 28.883362%, 57.513428%)" offset="0.03125"/><stop stop-opacity="1" stop-color="rgb(0.300598%, 29.179382%, 57.809448%)" offset="0.0390625"/><stop stop-opacity="1" stop-color="rgb(0.367737%, 29.475403%, 58.105469%)" offset="0.046875"/><stop stop-opacity="1" stop-color="rgb(0.43335%, 29.772949%, 58.401489%)" offset="0.0546875"/><stop stop-opacity="1" stop-color="rgb(0.500488%, 30.06897%, 58.699036%)" offset="0.0625"/><stop stop-opacity="1" stop-color="rgb(0.567627%, 30.366516%, 58.995056%)" offset="0.0703125"/><stop stop-opacity="1" stop-color="rgb(0.634766%, 30.662537%, 59.291077%)" offset="0.078125"/><stop stop-opacity="1" stop-color="rgb(0.700378%, 30.958557%, 59.588623%)" offset="0.0859375"/><stop stop-opacity="1" stop-color="rgb(0.767517%, 31.256104%, 59.884644%)" offset="0.09375"/><stop stop-opacity="1" stop-color="rgb(0.834656%, 31.552124%, 60.180664%)" offset="0.101563"/><stop stop-opacity="1" stop-color="rgb(0.901794%, 31.848145%, 60.476685%)" offset="0.109375"/><stop stop-opacity="1" stop-color="rgb(0.967407%, 32.145691%, 60.774231%)" offset="0.117188"/><stop stop-opacity="1" stop-color="rgb(1.034546%, 32.441711%, 61.070251%)" offset="0.125"/><stop stop-opacity="1" stop-color="rgb(1.101685%, 32.737732%, 61.366272%)" offset="0.132812"/><stop stop-opacity="1" stop-color="rgb(1.167297%, 33.035278%, 61.663818%)" offset="0.140625"/><stop stop-opacity="1" stop-color="rgb(1.234436%, 33.331299%, 61.959839%)" offset="0.148438"/><stop stop-opacity="1" stop-color="rgb(1.301575%, 33.627319%, 62.255859%)" offset="0.15625"/><stop stop-opacity="1" stop-color="rgb(1.368713%, 33.924866%, 62.55188%)" offset="0.164062"/><stop stop-opacity="1" stop-color="rgb(1.434326%, 34.220886%, 62.849426%)" offset="0.171875"/><stop stop-opacity="1" stop-color="rgb(1.501465%, 34.516907%, 63.145447%)" offset="0.179688"/><stop stop-opacity="1" stop-color="rgb(1.568604%, 34.814453%, 63.441467%)" offset="0.1875"/><stop stop-opacity="1" stop-color="rgb(1.635742%, 35.110474%, 63.739014%)" offset="0.195313"/><stop stop-opacity="1" stop-color="rgb(1.701355%, 35.406494%, 64.035034%)" offset="0.203125"/><stop stop-opacity="1" stop-color="rgb(1.768494%, 35.704041%, 64.331055%)" offset="0.210938"/><stop stop-opacity="1" stop-color="rgb(1.835632%, 36.000061%, 64.627075%)" offset="0.21875"/><stop stop-opacity="1" stop-color="rgb(1.901245%, 36.296082%, 64.924622%)" offset="0.226563"/><stop stop-opacity="1" stop-color="rgb(1.968384%, 36.593628%, 65.220642%)" offset="0.234375"/><stop stop-opacity="1" stop-color="rgb(2.035522%, 36.889648%, 65.516663%)" offset="0.242188"/><stop stop-opacity="1" stop-color="rgb(2.102661%, 37.185669%, 65.812683%)" offset="0.25"/><stop stop-opacity="1" stop-color="rgb(2.168274%, 37.483215%, 66.110229%)" offset="0.257812"/><stop stop-opacity="1" stop-color="rgb(2.235413%, 37.779236%, 66.40625%)" offset="0.265625"/><stop stop-opacity="1" stop-color="rgb(2.302551%, 38.075256%, 66.702271%)" offset="0.273437"/><stop stop-opacity="1" stop-color="rgb(2.368164%, 38.372803%, 66.999817%)" offset="0.28125"/><stop stop-opacity="1" stop-color="rgb(2.435303%, 38.668823%, 67.295837%)" offset="0.289062"/><stop stop-opacity="1" stop-color="rgb(2.502441%, 38.96637%, 67.591858%)" offset="0.296875"/><stop stop-opacity="1" stop-color="rgb(2.56958%, 39.26239%, 67.887878%)" offset="0.304688"/><stop stop-opacity="1" stop-color="rgb(2.635193%, 39.558411%, 68.185425%)" offset="0.3125"/><stop stop-opacity="1" stop-color="rgb(2.702332%, 39.855957%, 68.481445%)" offset="0.320312"/><stop stop-opacity="1" stop-color="rgb(2.76947%, 40.151978%, 68.777466%)" offset="0.328125"/><stop stop-opacity="1" stop-color="rgb(2.836609%, 40.447998%, 69.075012%)" offset="0.335938"/><stop stop-opacity="1" stop-color="rgb(2.902222%, 40.745544%, 69.371033%)" offset="0.34375"/><stop stop-opacity="1" stop-color="rgb(2.96936%, 41.041565%, 69.667053%)" offset="0.351562"/><stop stop-opacity="1" stop-color="rgb(3.036499%, 41.337585%, 69.963074%)" offset="0.359375"/><stop stop-opacity="1" stop-color="rgb(3.102112%, 41.635132%, 70.26062%)" offset="0.367188"/><stop stop-opacity="1" stop-color="rgb(3.16925%, 41.931152%, 70.556641%)" offset="0.372211"/><stop stop-opacity="1" stop-color="rgb(3.20282%, 42.079163%, 70.704651%)" offset="0.375"/><stop stop-opacity="1" stop-color="rgb(3.236389%, 42.227173%, 70.852661%)" offset="0.382812"/><stop stop-opacity="1" stop-color="rgb(3.303528%, 42.524719%, 71.150208%)" offset="0.390625"/><stop stop-opacity="1" stop-color="rgb(3.369141%, 42.82074%, 71.446228%)" offset="0.398438"/><stop stop-opacity="1" stop-color="rgb(3.436279%, 43.11676%, 71.742249%)" offset="0.40625"/><stop stop-opacity="1" stop-color="rgb(3.503418%, 43.414307%, 72.038269%)" offset="0.414062"/><stop stop-opacity="1" stop-color="rgb(3.570557%, 43.710327%, 72.335815%)" offset="0.421875"/><stop stop-opacity="1" stop-color="rgb(3.636169%, 44.006348%, 72.631836%)" offset="0.429688"/><stop stop-opacity="1" stop-color="rgb(3.703308%, 44.303894%, 72.927856%)" offset="0.4375"/><stop stop-opacity="1" stop-color="rgb(3.770447%, 44.599915%, 73.225403%)" offset="0.445312"/><stop stop-opacity="1" stop-color="rgb(3.83606%, 44.895935%, 73.521423%)" offset="0.453125"/><stop stop-opacity="1" stop-color="rgb(3.903198%, 45.193481%, 73.817444%)" offset="0.460938"/><stop stop-opacity="1" stop-color="rgb(3.970337%, 45.489502%, 74.113464%)" offset="0.46875"/><stop stop-opacity="1" stop-color="rgb(4.037476%, 45.785522%, 74.411011%)" offset="0.476563"/><stop stop-opacity="1" stop-color="rgb(4.103088%, 46.083069%, 74.707031%)" offset="0.484375"/><stop stop-opacity="1" stop-color="rgb(4.170227%, 46.379089%, 75.003052%)" offset="0.492187"/><stop stop-opacity="1" stop-color="rgb(4.237366%, 46.67511%, 75.300598%)" offset="0.5"/><stop stop-opacity="1" stop-color="rgb(4.304504%, 46.972656%, 75.596619%)" offset="0.507812"/><stop stop-opacity="1" stop-color="rgb(4.370117%, 47.268677%, 75.892639%)" offset="0.515625"/><stop stop-opacity="1" stop-color="rgb(4.437256%, 47.566223%, 76.18866%)" offset="0.523438"/><stop stop-opacity="1" stop-color="rgb(4.504395%, 47.862244%, 76.486206%)" offset="0.53125"/><stop stop-opacity="1" stop-color="rgb(4.570007%, 48.158264%, 76.782227%)" offset="0.539062"/><stop stop-opacity="1" stop-color="rgb(4.637146%, 48.455811%, 77.078247%)" offset="0.546875"/><stop stop-opacity="1" stop-color="rgb(4.704285%, 48.751831%, 77.375793%)" offset="0.554688"/><stop stop-opacity="1" stop-color="rgb(4.771423%, 49.047852%, 77.671814%)" offset="0.5625"/><stop stop-opacity="1" stop-color="rgb(4.837036%, 49.345398%, 77.967834%)" offset="0.570312"/><stop stop-opacity="1" stop-color="rgb(4.904175%, 49.641418%, 78.263855%)" offset="0.578125"/><stop stop-opacity="1" stop-color="rgb(4.971313%, 49.937439%, 78.561401%)" offset="0.585938"/><stop stop-opacity="1" stop-color="rgb(5.036926%, 50.234985%, 78.857422%)" offset="0.59375"/><stop stop-opacity="1" stop-color="rgb(5.104065%, 50.531006%, 79.153442%)" offset="0.601562"/><stop stop-opacity="1" stop-color="rgb(5.171204%, 50.827026%, 79.450989%)" offset="0.609375"/><stop stop-opacity="1" stop-color="rgb(5.238342%, 51.124573%, 79.747009%)" offset="0.617188"/><stop stop-opacity="1" stop-color="rgb(5.303955%, 51.420593%, 80.04303%)" offset="0.625"/><stop stop-opacity="1" stop-color="rgb(5.371094%, 51.716614%, 80.33905%)" offset="0.627789"/><stop stop-opacity="1" stop-color="rgb(5.404663%, 51.86615%, 80.488586%)" offset="0.632812"/><stop stop-opacity="1" stop-color="rgb(5.438232%, 52.01416%, 80.636597%)" offset="0.640625"/><stop stop-opacity="1" stop-color="rgb(5.505371%, 52.310181%, 80.932617%)" offset="0.648438"/><stop stop-opacity="1" stop-color="rgb(5.570984%, 52.606201%, 81.228638%)" offset="0.65625"/><stop stop-opacity="1" stop-color="rgb(5.638123%, 52.903748%, 81.524658%)" offset="0.664062"/><stop stop-opacity="1" stop-color="rgb(5.705261%, 53.199768%, 81.822205%)" offset="0.671875"/><stop stop-opacity="1" stop-color="rgb(5.770874%, 53.495789%, 82.118225%)" offset="0.679688"/><stop stop-opacity="1" stop-color="rgb(5.838013%, 53.793335%, 82.414246%)" offset="0.6875"/><stop stop-opacity="1" stop-color="rgb(5.905151%, 54.089355%, 82.711792%)" offset="0.695312"/><stop stop-opacity="1" stop-color="rgb(5.97229%, 54.385376%, 83.007812%)" offset="0.703125"/><stop stop-opacity="1" stop-color="rgb(6.037903%, 54.682922%, 83.303833%)" offset="0.710938"/><stop stop-opacity="1" stop-color="rgb(6.105042%, 54.978943%, 83.599854%)" offset="0.71875"/><stop stop-opacity="1" stop-color="rgb(6.17218%, 55.276489%, 83.8974%)" offset="0.726562"/><stop stop-opacity="1" stop-color="rgb(6.239319%, 55.57251%, 84.19342%)" offset="0.734375"/><stop stop-opacity="1" stop-color="rgb(6.304932%, 55.86853%, 84.489441%)" offset="0.742188"/><stop stop-opacity="1" stop-color="rgb(6.37207%, 56.166077%, 84.786987%)" offset="0.75"/><stop stop-opacity="1" stop-color="rgb(6.439209%, 56.462097%, 85.083008%)" offset="0.757812"/><stop stop-opacity="1" stop-color="rgb(6.504822%, 56.758118%, 85.379028%)" offset="0.765625"/><stop stop-opacity="1" stop-color="rgb(6.57196%, 57.055664%, 85.675049%)" offset="0.773438"/><stop stop-opacity="1" stop-color="rgb(6.639099%, 57.351685%, 85.972595%)" offset="0.78125"/><stop stop-opacity="1" stop-color="rgb(6.706238%, 57.647705%, 86.268616%)" offset="0.789062"/><stop stop-opacity="1" stop-color="rgb(6.771851%, 57.945251%, 86.564636%)" offset="0.796875"/><stop stop-opacity="1" stop-color="rgb(6.838989%, 58.241272%, 86.862183%)" offset="0.804688"/><stop stop-opacity="1" stop-color="rgb(6.906128%, 58.537292%, 87.158203%)" offset="0.8125"/><stop stop-opacity="1" stop-color="rgb(6.971741%, 58.834839%, 87.454224%)" offset="0.820312"/><stop stop-opacity="1" stop-color="rgb(7.03125%, 59.100342%, 87.719727%)" offset="0.828125"/><stop stop-opacity="1" stop-color="rgb(7.058716%, 59.21936%, 87.838745%)" offset="0.84375"/><stop stop-opacity="1" stop-color="rgb(7.058716%, 59.21936%, 87.838745%)" offset="0.875"/><stop stop-opacity="1" stop-color="rgb(7.058716%, 59.21936%, 87.838745%)" offset="1"/></linearGradient><clipPath id="e2d974dbf6"><path d="M 126 58 L 166.367188 58 L 166.367188 77 L 126 77 Z M 126 58 " clip-rule="nonzero"/></clipPath><clipPath id="5ef6cb59e6"><rect x="0" width="758" y="0" height="130"/></clipPath></defs><g clip-path="url(#369a2da86f)"><path fill="#0067b0" d="M 106.132812 93.757812 L 141.78125 114.355469 L 166.367188 100.148438 L 166.367188 58.953125 L 92.195312 16.097656 L 61.429688 33.871094 L 135.605469 76.726562 Z M 106.132812 93.757812 " fill-opacity="1" fill-rule="evenodd"/></g><g clip-path="url(#39b6fd3d10)"><g clip-path="url(#d9e7859511)"><path fill="url(#75e870dc97)" d="M 18.019531 58.953125 L 18.019531 230.378906 L 166.367188 230.378906 L 166.367188 58.953125 Z M 18.019531 58.953125 " fill-rule="nonzero"/></g></g><g clip-path="url(#e2d974dbf6)"><path fill="#003780" d="M 135.605469 76.726562 L 166.367188 58.953125 L 126.171875 71.277344 Z M 135.605469 76.726562 " fill-opacity="1" fill-rule="evenodd"/></g><g transform="matrix(1, 0, 0, 1, 188, 33)"><g clip-path="url(#5ef6cb59e6)"><g fill="#000000" fill-opacity="1"><g transform="translate(0.230174, 94.961498)"><g><path d="M 44.703125 -33.046875 C 48.441406 -32.253906 51.441406 -30.40625 53.703125 -27.5 C 55.960938 -24.59375 57.09375 -21.269531 57.09375 -17.53125 C 57.09375 -12.144531 55.210938 -7.875 51.453125 -4.71875 C 47.691406 -1.570312 42.441406 0 35.703125 0 L 5.6875 0 L 5.6875 -64.4375 L 34.703125 -64.4375 C 41.242188 -64.4375 46.363281 -62.9375 50.0625 -59.9375 C 53.769531 -56.945312 55.625 -52.878906 55.625 -47.734375 C 55.625 -43.941406 54.628906 -40.789062 52.640625 -38.28125 C 50.648438 -35.769531 48.003906 -34.023438 44.703125 -33.046875 Z M 21.390625 -38.375 L 31.671875 -38.375 C 34.242188 -38.375 36.21875 -38.9375 37.59375 -40.0625 C 38.96875 -41.195312 39.65625 -42.867188 39.65625 -45.078125 C 39.65625 -47.273438 38.96875 -48.953125 37.59375 -50.109375 C 36.21875 -51.273438 34.242188 -51.859375 31.671875 -51.859375 L 21.390625 -51.859375 Z M 32.953125 -12.671875 C 35.585938 -12.671875 37.625 -13.265625 39.0625 -14.453125 C 40.5 -15.648438 41.21875 -17.378906 41.21875 -19.640625 C 41.21875 -21.910156 40.46875 -23.6875 38.96875 -24.96875 C 37.46875 -26.25 35.398438 -26.890625 32.765625 -26.890625 L 21.390625 -26.890625 L 21.390625 -12.671875 Z M 32.953125 -12.671875 "/></g></g></g><g fill="#000000" fill-opacity="1"><g transform="translate(60.706292, 94.961498)"><g><path d="M 45.8125 -11.390625 L 21.75 -11.390625 L 17.90625 0 L 1.46875 0 L 24.78125 -64.4375 L 42.96875 -64.4375 L 66.28125 0 L 49.65625 0 Z M 41.765625 -23.5 L 33.78125 -47.09375 L 25.890625 -23.5 Z M 41.765625 -23.5 "/></g></g></g><g fill="#000000" fill-opacity="1"><g transform="translate(128.340439, 94.961498)"><g><path d="M 63.34375 0 L 47.640625 0 L 21.390625 -39.75 L 21.390625 0 L 5.6875 0 L 5.6875 -64.4375 L 21.390625 -64.4375 L 47.640625 -24.515625 L 47.640625 -64.4375 L 63.34375 -64.4375 Z M 63.34375 0 "/></g></g></g><g fill="#000000" fill-opacity="1"><g transform="translate(197.351133, 94.961498)"><g><path d="M 48.46875 -44.0625 C 47.300781 -46.207031 45.628906 -47.84375 43.453125 -48.96875 C 41.285156 -50.101562 38.734375 -50.671875 35.796875 -50.671875 C 30.722656 -50.671875 26.65625 -49.003906 23.59375 -45.671875 C 20.53125 -42.335938 19 -37.882812 19 -32.3125 C 19 -26.375 20.601562 -21.738281 23.8125 -18.40625 C 27.03125 -15.070312 31.457031 -13.40625 37.09375 -13.40625 C 40.945312 -13.40625 44.203125 -14.382812 46.859375 -16.34375 C 49.523438 -18.300781 51.46875 -21.113281 52.6875 -24.78125 L 32.765625 -24.78125 L 32.765625 -36.359375 L 66.921875 -36.359375 L 66.921875 -21.75 C 65.753906 -17.832031 63.78125 -14.191406 61 -10.828125 C 58.21875 -7.460938 54.679688 -4.738281 50.390625 -2.65625 C 46.109375 -0.582031 41.273438 0.453125 35.890625 0.453125 C 29.523438 0.453125 23.847656 -0.9375 18.859375 -3.71875 C 13.878906 -6.5 9.992188 -10.367188 7.203125 -15.328125 C 4.421875 -20.285156 3.03125 -25.945312 3.03125 -32.3125 C 3.03125 -38.675781 4.421875 -44.351562 7.203125 -49.34375 C 9.992188 -54.332031 13.863281 -58.21875 18.8125 -61 C 23.769531 -63.78125 29.429688 -65.171875 35.796875 -65.171875 C 43.515625 -65.171875 50.019531 -63.304688 55.3125 -59.578125 C 60.601562 -55.847656 64.101562 -50.675781 65.8125 -44.0625 Z M 48.46875 -44.0625 "/></g></g></g><g fill="#000000" fill-opacity="1"><g transform="translate(267.279535, 94.961498)"><g><path d="M 21.390625 -12.125 L 41.953125 -12.125 L 41.953125 0 L 5.6875 0 L 5.6875 -64.4375 L 21.390625 -64.4375 Z M 21.390625 -12.125 "/></g></g></g><g fill="#000000" fill-opacity="1"><g transform="translate(311.053612, 94.961498)"><g><path d="M 45.8125 -11.390625 L 21.75 -11.390625 L 17.90625 0 L 1.46875 0 L 24.78125 -64.4375 L 42.96875 -64.4375 L 66.28125 0 L 49.65625 0 Z M 41.765625 -23.5 L 33.78125 -47.09375 L 25.890625 -23.5 Z M 41.765625 -23.5 "/></g></g></g><g fill="#000000" fill-opacity="1"><g transform="translate(378.687759, 94.961498)"><g/></g></g><g fill="#000000" fill-opacity="1"><g transform="translate(398.142892, 94.961498)"><g><path d="M 61.5 -64.4375 L 61.5 0 L 45.8125 0 L 45.8125 -26.53125 L 21.390625 -26.53125 L 21.390625 0 L 5.6875 0 L 5.6875 -64.4375 L 21.390625 -64.4375 L 21.390625 -39.203125 L 45.8125 -39.203125 L 45.8125 -64.4375 Z M 61.5 -64.4375 "/></g></g></g><g fill="#000000" fill-opacity="1"><g transform="translate(465.226436, 94.961498)"><g><path d="M 36.171875 0.640625 C 30.109375 0.640625 24.550781 -0.765625 19.5 -3.578125 C 14.457031 -6.390625 10.453125 -10.320312 7.484375 -15.375 C 4.515625 -20.425781 3.03125 -26.101562 3.03125 -32.40625 C 3.03125 -38.707031 4.515625 -44.367188 7.484375 -49.390625 C 10.453125 -54.410156 14.457031 -58.328125 19.5 -61.140625 C 24.550781 -63.953125 30.109375 -65.359375 36.171875 -65.359375 C 42.222656 -65.359375 47.773438 -63.953125 52.828125 -61.140625 C 57.878906 -58.328125 61.859375 -54.410156 64.765625 -49.390625 C 67.671875 -44.367188 69.125 -38.707031 69.125 -32.40625 C 69.125 -26.101562 67.65625 -20.425781 64.71875 -15.375 C 61.78125 -10.320312 57.800781 -6.390625 52.78125 -3.578125 C 47.757812 -0.765625 42.222656 0.640625 36.171875 0.640625 Z M 36.171875 -13.671875 C 41.304688 -13.671875 45.421875 -15.382812 48.515625 -18.8125 C 51.609375 -22.238281 53.15625 -26.769531 53.15625 -32.40625 C 53.15625 -38.09375 51.609375 -42.632812 48.515625 -46.03125 C 45.421875 -49.425781 41.304688 -51.125 36.171875 -51.125 C 30.960938 -51.125 26.8125 -49.441406 23.71875 -46.078125 C 20.632812 -42.710938 19.09375 -38.15625 19.09375 -32.40625 C 19.09375 -26.71875 20.632812 -22.171875 23.71875 -18.765625 C 26.8125 -15.367188 30.960938 -13.671875 36.171875 -13.671875 Z M 36.171875 -13.671875 "/></g></g></g><g fill="#000000" fill-opacity="1"><g transform="translate(537.357289, 94.961498)"><g><path d="M 29.015625 0.640625 C 24.296875 0.640625 20.066406 -0.125 16.328125 -1.65625 C 12.597656 -3.1875 9.617188 -5.445312 7.390625 -8.4375 C 5.160156 -11.4375 3.984375 -15.050781 3.859375 -19.28125 L 20.5625 -19.28125 C 20.8125 -16.894531 21.640625 -15.070312 23.046875 -13.8125 C 24.453125 -12.5625 26.285156 -11.9375 28.546875 -11.9375 C 30.867188 -11.9375 32.703125 -12.46875 34.046875 -13.53125 C 35.398438 -14.601562 36.078125 -16.09375 36.078125 -18 C 36.078125 -19.582031 35.539062 -20.894531 34.46875 -21.9375 C 33.394531 -22.976562 32.078125 -23.832031 30.515625 -24.5 C 28.960938 -25.175781 26.75 -25.945312 23.875 -26.8125 C 19.707031 -28.09375 16.304688 -29.375 13.671875 -30.65625 C 11.046875 -31.945312 8.785156 -33.84375 6.890625 -36.34375 C 4.992188 -38.851562 4.046875 -42.128906 4.046875 -46.171875 C 4.046875 -52.171875 6.21875 -56.867188 10.5625 -60.265625 C 14.90625 -63.660156 20.566406 -65.359375 27.546875 -65.359375 C 34.640625 -65.359375 40.359375 -63.660156 44.703125 -60.265625 C 49.046875 -56.867188 51.375 -52.140625 51.6875 -46.078125 L 34.703125 -46.078125 C 34.578125 -48.160156 33.8125 -49.796875 32.40625 -50.984375 C 31 -52.179688 29.191406 -52.78125 26.984375 -52.78125 C 25.085938 -52.78125 23.554688 -52.273438 22.390625 -51.265625 C 21.234375 -50.253906 20.65625 -48.800781 20.65625 -46.90625 C 20.65625 -44.820312 21.632812 -43.195312 23.59375 -42.03125 C 25.550781 -40.875 28.609375 -39.625 32.765625 -38.28125 C 36.929688 -36.875 40.3125 -35.523438 42.90625 -34.234375 C 45.507812 -32.953125 47.757812 -31.085938 49.65625 -28.640625 C 51.5625 -26.191406 52.515625 -23.039062 52.515625 -19.1875 C 52.515625 -15.507812 51.578125 -12.171875 49.703125 -9.171875 C 47.835938 -6.179688 45.128906 -3.796875 41.578125 -2.015625 C 38.035156 -0.242188 33.847656 0.640625 29.015625 0.640625 Z M 29.015625 0.640625 "/></g></g></g><g fill="#000000" fill-opacity="1"><g transform="translate(593.795537, 94.961498)"><g><path d="M 52.046875 -64.4375 L 52.046875 -51.859375 L 34.96875 -51.859375 L 34.96875 0 L 19.28125 0 L 19.28125 -51.859375 L 2.203125 -51.859375 L 2.203125 -64.4375 Z M 52.046875 -64.4375 "/></g></g></g><g fill="#000000" fill-opacity="1"><g transform="translate(648.031337, 94.961498)"><g><path d="M 21.390625 -51.859375 L 21.390625 -38.828125 L 42.40625 -38.828125 L 42.40625 -26.71875 L 21.390625 -26.71875 L 21.390625 -12.578125 L 45.171875 -12.578125 L 45.171875 0 L 5.6875 0 L 5.6875 -64.4375 L 45.171875 -64.4375 L 45.171875 -51.859375 Z M 21.390625 -51.859375 "/></g></g></g><g fill="#000000" fill-opacity="1"><g transform="translate(697.678701, 94.961498)"><g><path d="M 38.5625 0 L 25.15625 -24.328125 L 21.390625 -24.328125 L 21.390625 0 L 5.6875 0 L 5.6875 -64.4375 L 32.03125 -64.4375 C 37.113281 -64.4375 41.441406 -63.550781 45.015625 -61.78125 C 48.597656 -60.007812 51.273438 -57.578125 53.046875 -54.484375 C 54.828125 -51.390625 55.71875 -47.945312 55.71875 -44.15625 C 55.71875 -39.875 54.507812 -36.046875 52.09375 -32.671875 C 49.675781 -29.304688 46.113281 -26.921875 41.40625 -25.515625 L 56.265625 0 Z M 21.390625 -35.4375 L 31.125 -35.4375 C 34 -35.4375 36.15625 -36.140625 37.59375 -37.546875 C 39.03125 -38.953125 39.75 -40.941406 39.75 -43.515625 C 39.75 -45.960938 39.03125 -47.890625 37.59375 -49.296875 C 36.15625 -50.703125 34 -51.40625 31.125 -51.40625 L 21.390625 -51.40625 Z M 21.390625 -35.4375 "/></g></g></g></g></g><g fill="#000000" fill-opacity="1"><g transform="translate(188.194799, 187.183792)"><g><path d="M 11.25 -26.609375 L 13.96875 -26.609375 C 15.75 -26.609375 17.347656 -26.132812 18.765625 -25.1875 C 20.191406 -24.25 21.328125 -22.988281 22.171875 -21.40625 C 23.023438 -19.820312 23.453125 -18.035156 23.453125 -16.046875 C 23.453125 -14.128906 23.023438 -12.367188 22.171875 -10.765625 C 21.328125 -9.171875 20.191406 -7.898438 18.765625 -6.953125 C 17.347656 -6.015625 15.75 -5.546875 13.96875 -5.546875 L 11.25 -5.546875 L 11.25 -0.046875 L 3.515625 -0.046875 L 3.515625 -26.609375 Z M 11.25 -12.109375 L 12.84375 -12.109375 C 13.84375 -12.109375 14.6875 -12.503906 15.375 -13.296875 C 16.070312 -14.097656 16.421875 -15.015625 16.421875 -16.046875 C 16.421875 -17.148438 16.070312 -18.097656 15.375 -18.890625 C 14.6875 -19.691406 13.84375 -20.09375 12.84375 -20.09375 L 11.25 -20.09375 Z M 11.25 -12.109375 "/></g></g></g><g fill="#000000" fill-opacity="1"><g transform="translate(212.073821, 187.183792)"><g><path d="M 15.359375 -26.96875 C 17.910156 -26.96875 20.21875 -26.363281 22.28125 -25.15625 C 24.34375 -23.945312 25.976562 -22.3125 27.1875 -20.25 C 28.394531 -18.195312 29 -15.890625 29 -13.328125 C 29 -10.804688 28.394531 -8.503906 27.1875 -6.421875 C 25.976562 -4.347656 24.34375 -2.707031 22.28125 -1.5 C 20.21875 -0.289062 17.910156 0.3125 15.359375 0.3125 C 12.828125 0.3125 10.519531 -0.289062 8.4375 -1.5 C 6.363281 -2.707031 4.722656 -4.347656 3.515625 -6.421875 C 2.304688 -8.503906 1.703125 -10.804688 1.703125 -13.328125 C 1.703125 -15.890625 2.304688 -18.195312 3.515625 -20.25 C 4.722656 -22.3125 6.363281 -23.945312 8.4375 -25.15625 C 10.519531 -26.363281 12.828125 -26.96875 15.359375 -26.96875 Z M 15.359375 -7.625 C 16.953125 -7.625 18.300781 -8.171875 19.40625 -9.265625 C 20.507812 -10.367188 21.0625 -11.722656 21.0625 -13.328125 C 21.0625 -14.929688 20.507812 -16.28125 19.40625 -17.375 C 18.300781 -18.476562 16.953125 -19.03125 15.359375 -19.03125 C 13.753906 -19.03125 12.398438 -18.476562 11.296875 -17.375 C 10.203125 -16.28125 9.65625 -14.929688 9.65625 -13.328125 C 9.65625 -11.722656 10.203125 -10.367188 11.296875 -9.265625 C 12.398438 -8.171875 13.753906 -7.625 15.359375 -7.625 Z M 15.359375 -7.625 "/></g></g></g><g fill="#000000" fill-opacity="1"><g transform="translate(242.722122, 187.183792)"><g><path d="M 4.640625 0 L 2.828125 -26.546875 L 9.96875 -26.546875 L 11.09375 -11.03125 L 16.09375 -16.84375 L 21.0625 -11.03125 L 22.015625 -26.546875 L 29.15625 -26.546875 L 27.34375 0 L 19.828125 0 L 16.09375 -6.125 L 12.3125 0 Z M 4.640625 0 "/></g></g></g><g fill="#000000" fill-opacity="1"><g transform="translate(274.702952, 187.183792)"><g><path d="M 11.25 -9.390625 L 11.25 -7.78125 L 27.25 -7.78125 L 27.25 -0.046875 L 3.515625 -0.046875 L 3.515625 -26.609375 L 25.265625 -26.609375 L 25.265625 -18.875 L 11.25 -18.875 L 11.25 -17.171875 L 23.296875 -17.171875 L 23.296875 -9.390625 Z M 11.25 -9.390625 "/></g></g></g><g fill="#000000" fill-opacity="1"><g transform="translate(304.764937, 187.183792)"><g><path d="M 25.703125 0 L 16.84375 0 L 10.921875 -9.21875 L 10.921875 0 L 3.515625 0 L 3.515625 -26.546875 L 16.09375 -26.546875 C 17.59375 -26.472656 18.953125 -26.054688 20.171875 -25.296875 C 21.398438 -24.535156 22.378906 -23.53125 23.109375 -22.28125 C 23.835938 -21.039062 24.203125 -19.640625 24.203125 -18.078125 C 24.203125 -16.398438 23.753906 -14.878906 22.859375 -13.515625 C 21.972656 -12.148438 20.820312 -11.128906 19.40625 -10.453125 Z M 15.734375 -19.296875 L 10.921875 -19.296875 L 10.921875 -16.84375 L 15.734375 -16.84375 C 16.015625 -16.84375 16.285156 -16.972656 16.546875 -17.234375 C 16.816406 -17.503906 16.953125 -17.785156 16.953125 -18.078125 C 16.953125 -18.460938 16.816406 -18.757812 16.546875 -18.96875 C 16.285156 -19.1875 16.015625 -19.296875 15.734375 -19.296875 Z M 15.734375 -19.296875 "/></g></g></g><g fill="#000000" fill-opacity="1"><g transform="translate(332.00195, 187.183792)"><g><path d="M 9.921875 -26.609375 L 9.921875 0 L 3.3125 0 L 3.3125 -26.609375 Z M 9.921875 -31.03125 C 9.921875 -30.101562 9.597656 -29.316406 8.953125 -28.671875 C 8.316406 -28.035156 7.535156 -27.71875 6.609375 -27.71875 C 5.679688 -27.71875 4.898438 -28.035156 4.265625 -28.671875 C 3.628906 -29.316406 3.3125 -30.101562 3.3125 -31.03125 C 3.3125 -31.945312 3.628906 -32.734375 4.265625 -33.390625 C 4.898438 -34.054688 5.679688 -34.390625 6.609375 -34.390625 C 7.535156 -34.390625 8.316406 -34.054688 8.953125 -33.390625 C 9.597656 -32.734375 9.921875 -31.945312 9.921875 -31.03125 Z M 9.921875 -31.03125 "/></g></g></g><g fill="#000000" fill-opacity="1"><g transform="translate(345.540497, 187.183792)"><g><path d="M 22.34375 -11.5625 L 22.34375 -26.546875 L 30.0625 -26.546875 L 30.0625 0 L 22.34375 0 L 11.25 -14.390625 L 11.25 0 L 3.515625 0 L 3.515625 -26.546875 L 11.25 -26.546875 Z M 22.34375 -11.5625 "/></g></g></g><g fill="#000000" fill-opacity="1"><g transform="translate(379.226976, 187.183792)"><g><path d="M 27.9375 -13.21875 L 29 -13.21875 C 29 -10.695312 28.394531 -8.394531 27.1875 -6.3125 C 25.976562 -4.238281 24.34375 -2.597656 22.28125 -1.390625 C 20.21875 -0.179688 17.910156 0.421875 15.359375 0.421875 C 12.828125 0.421875 10.519531 -0.179688 8.4375 -1.390625 C 6.363281 -2.597656 4.722656 -4.238281 3.515625 -6.3125 C 2.304688 -8.394531 1.703125 -10.695312 1.703125 -13.21875 C 1.703125 -15.78125 2.304688 -18.09375 3.515625 -20.15625 C 4.722656 -22.21875 6.363281 -23.851562 8.4375 -25.0625 C 10.519531 -26.269531 12.828125 -26.875 15.359375 -26.875 C 17.378906 -26.875 19.257812 -26.484375 21 -25.703125 C 22.75 -24.921875 24.257812 -23.851562 25.53125 -22.5 L 19.515625 -17 C 18.441406 -18.28125 17.054688 -18.921875 15.359375 -18.921875 C 13.753906 -18.921875 12.398438 -18.367188 11.296875 -17.265625 C 10.203125 -16.171875 9.65625 -14.820312 9.65625 -13.21875 C 9.65625 -11.625 10.203125 -10.273438 11.296875 -9.171875 C 12.398438 -8.066406 13.753906 -7.515625 15.359375 -7.515625 C 16.492188 -7.515625 17.53125 -7.828125 18.46875 -8.453125 C 19.414062 -9.078125 20.117188 -9.898438 20.578125 -10.921875 L 15.359375 -10.921875 L 15.359375 -13.21875 Z M 27.9375 -13.21875 "/></g></g></g><g fill="#000000" fill-opacity="1"><g transform="translate(409.075745, 187.183792)"><g/></g></g><g fill="#000000" fill-opacity="1"><g transform="translate(424.533159, 187.183792)"><g><path d="M 24.25 -18.015625 C 24.25 -16.203125 23.71875 -14.601562 22.65625 -13.21875 C 23.71875 -11.832031 24.25 -10.234375 24.25 -8.421875 C 24.25 -6.890625 23.882812 -5.492188 23.15625 -4.234375 C 22.4375 -2.972656 21.460938 -1.957031 20.234375 -1.1875 C 19.003906 -0.425781 17.644531 -0.015625 16.15625 0.046875 L 3.578125 0.046875 L 3.578125 -26.5 L 16.15625 -26.5 C 17.644531 -26.425781 19.003906 -26.003906 20.234375 -25.234375 C 21.460938 -24.472656 22.4375 -23.46875 23.15625 -22.21875 C 23.882812 -20.976562 24.25 -19.578125 24.25 -18.015625 Z M 15.78125 -19.25 L 10.984375 -19.25 L 10.984375 -16.796875 L 15.78125 -16.796875 C 16.0625 -16.796875 16.332031 -16.925781 16.59375 -17.1875 C 16.863281 -17.457031 17 -17.734375 17 -18.015625 C 17 -18.410156 16.863281 -18.710938 16.59375 -18.921875 C 16.332031 -19.140625 16.0625 -19.25 15.78125 -19.25 Z M 10.984375 -7.203125 L 15.78125 -7.203125 C 16.0625 -7.203125 16.332031 -7.304688 16.59375 -7.515625 C 16.863281 -7.734375 17 -8.035156 17 -8.421875 C 17 -8.703125 16.863281 -8.957031 16.59375 -9.1875 C 16.332031 -9.425781 16.0625 -9.546875 15.78125 -9.546875 L 15.78125 -9.65625 L 10.984375 -9.65625 Z M 10.984375 -7.203125 "/></g></g></g><g fill="#000000" fill-opacity="1"><g transform="translate(451.237143, 187.183792)"><g><path d="M 20.53125 -26.703125 L 28.25 -26.703125 L 28.25 -0.15625 L 20.53125 -0.15625 L 20.53125 -1.390625 C 19.675781 -0.921875 18.785156 -0.597656 17.859375 -0.421875 C 16.929688 -0.242188 15.972656 -0.15625 14.984375 -0.15625 C 12.523438 -0.15625 10.289062 -0.75 8.28125 -1.9375 C 6.28125 -3.132812 4.679688 -4.734375 3.484375 -6.734375 C 2.296875 -8.742188 1.703125 -10.976562 1.703125 -13.4375 C 1.703125 -15.925781 2.296875 -18.164062 3.484375 -20.15625 C 4.679688 -22.144531 6.28125 -23.734375 8.28125 -24.921875 C 10.289062 -26.109375 12.523438 -26.703125 14.984375 -26.703125 C 16.929688 -26.703125 18.78125 -26.296875 20.53125 -25.484375 Z M 14.984375 -8.375 C 16.367188 -8.375 17.53125 -8.867188 18.46875 -9.859375 C 19.414062 -10.859375 19.890625 -12.050781 19.890625 -13.4375 C 19.890625 -14.820312 19.414062 -15.984375 18.46875 -16.921875 C 17.53125 -17.867188 16.367188 -18.34375 14.984375 -18.34375 C 13.597656 -18.34375 12.40625 -17.867188 11.40625 -16.921875 C 10.414062 -15.984375 9.921875 -14.820312 9.921875 -13.4375 C 9.921875 -12.050781 10.414062 -10.859375 11.40625 -9.859375 C 12.40625 -8.867188 13.597656 -8.375 14.984375 -8.375 Z M 14.984375 -8.375 "/></g></g></g><g fill="#000000" fill-opacity="1"><g transform="translate(483.111387, 187.183792)"><g><path d="M 22.34375 -11.5625 L 22.34375 -26.546875 L 30.0625 -26.546875 L 30.0625 0 L 22.34375 0 L 11.25 -14.390625 L 11.25 0 L 3.515625 0 L 3.515625 -26.546875 L 11.25 -26.546875 Z M 22.34375 -11.5625 "/></g></g></g><g fill="#000000" fill-opacity="1"><g transform="translate(516.797866, 187.183792)"><g><path d="M 27.9375 -13.21875 L 29 -13.21875 C 29 -10.695312 28.394531 -8.394531 27.1875 -6.3125 C 25.976562 -4.238281 24.34375 -2.597656 22.28125 -1.390625 C 20.21875 -0.179688 17.910156 0.421875 15.359375 0.421875 C 12.828125 0.421875 10.519531 -0.179688 8.4375 -1.390625 C 6.363281 -2.597656 4.722656 -4.238281 3.515625 -6.3125 C 2.304688 -8.394531 1.703125 -10.695312 1.703125 -13.21875 C 1.703125 -15.78125 2.304688 -18.09375 3.515625 -20.15625 C 4.722656 -22.21875 6.363281 -23.851562 8.4375 -25.0625 C 10.519531 -26.269531 12.828125 -26.875 15.359375 -26.875 C 17.378906 -26.875 19.257812 -26.484375 21 -25.703125 C 22.75 -24.921875 24.257812 -23.851562 25.53125 -22.5 L 19.515625 -17 C 18.441406 -18.28125 17.054688 -18.921875 15.359375 -18.921875 C 13.753906 -18.921875 12.398438 -18.367188 11.296875 -17.265625 C 10.203125 -16.171875 9.65625 -14.820312 9.65625 -13.21875 C 9.65625 -11.625 10.203125 -10.273438 11.296875 -9.171875 C 12.398438 -8.066406 13.753906 -7.515625 15.359375 -7.515625 C 16.492188 -7.515625 17.53125 -7.828125 18.46875 -8.453125 C 19.414062 -9.078125 20.117188 -9.898438 20.578125 -10.921875 L 15.359375 -10.921875 L 15.359375 -13.21875 Z M 27.9375 -13.21875 "/></g></g></g><g fill="#000000" fill-opacity="1"><g transform="translate(546.646635, 187.183792)"><g><path d="M 11.296875 -26.5 L 11.296875 -6.5625 L 24.578125 -6.5625 L 24.578125 0.046875 L 3.515625 0.046875 L 3.515625 -26.5 Z M 11.296875 -26.5 "/></g></g></g><g fill="#000000" fill-opacity="1"><g transform="translate(571.21857, 187.183792)"><g><path d="M 20.53125 -26.703125 L 28.25 -26.703125 L 28.25 -0.15625 L 20.53125 -0.15625 L 20.53125 -1.390625 C 19.675781 -0.921875 18.785156 -0.597656 17.859375 -0.421875 C 16.929688 -0.242188 15.972656 -0.15625 14.984375 -0.15625 C 12.523438 -0.15625 10.289062 -0.75 8.28125 -1.9375 C 6.28125 -3.132812 4.679688 -4.734375 3.484375 -6.734375 C 2.296875 -8.742188 1.703125 -10.976562 1.703125 -13.4375 C 1.703125 -15.925781 2.296875 -18.164062 3.484375 -20.15625 C 4.679688 -22.144531 6.28125 -23.734375 8.28125 -24.921875 C 10.289062 -26.109375 12.523438 -26.703125 14.984375 -26.703125 C 16.929688 -26.703125 18.78125 -26.296875 20.53125 -25.484375 Z M 14.984375 -8.375 C 16.367188 -8.375 17.53125 -8.867188 18.46875 -9.859375 C 19.414062 -10.859375 19.890625 -12.050781 19.890625 -13.4375 C 19.890625 -14.820312 19.414062 -15.984375 18.46875 -16.921875 C 17.53125 -17.867188 16.367188 -18.34375 14.984375 -18.34375 C 13.597656 -18.34375 12.40625 -17.867188 11.40625 -16.921875 C 10.414062 -15.984375 9.921875 -14.820312 9.921875 -13.4375 C 9.921875 -12.050781 10.414062 -10.859375 11.40625 -9.859375 C 12.40625 -8.867188 13.597656 -8.375 14.984375 -8.375 Z M 14.984375 -8.375 "/></g></g></g><g fill="#000000" fill-opacity="1"><g transform="translate(603.092813, 187.183792)"><g><path d="M 11.296875 -26.5 L 14.609375 -26.5 C 17.097656 -26.5 19.34375 -25.898438 21.34375 -24.703125 C 23.351562 -23.515625 24.953125 -21.925781 26.140625 -19.9375 C 27.335938 -17.945312 27.9375 -15.707031 27.9375 -13.21875 C 27.9375 -10.769531 27.335938 -8.539062 26.140625 -6.53125 C 24.953125 -4.519531 23.351562 -2.921875 21.34375 -1.734375 C 19.34375 -0.546875 17.097656 0.046875 14.609375 0.046875 L 3.515625 0.046875 L 3.515625 -26.5 Z M 11.296875 -7.671875 L 14.609375 -7.671875 C 16.171875 -7.671875 17.484375 -8.203125 18.546875 -9.265625 C 19.617188 -10.335938 20.15625 -11.65625 20.15625 -13.21875 C 20.15625 -14.78125 19.617188 -16.09375 18.546875 -17.15625 C 17.484375 -18.226562 16.171875 -18.765625 14.609375 -18.765625 L 11.296875 -18.765625 Z M 11.296875 -7.671875 "/></g></g></g><g fill="#000000" fill-opacity="1"><g transform="translate(632.568471, 187.183792)"><g><path d="M 11.25 -9.390625 L 11.25 -7.78125 L 27.25 -7.78125 L 27.25 -0.046875 L 3.515625 -0.046875 L 3.515625 -26.609375 L 25.265625 -26.609375 L 25.265625 -18.875 L 11.25 -18.875 L 11.25 -17.171875 L 23.296875 -17.171875 L 23.296875 -9.390625 Z M 11.25 -9.390625 "/></g></g></g><g fill="#000000" fill-opacity="1"><g transform="translate(662.63048, 187.183792)"><g><path d="M 10.71875 -17.0625 L 11.828125 -17.0625 C 13.398438 -17.0625 14.820312 -16.675781 16.09375 -15.90625 C 17.375 -15.144531 18.394531 -14.125 19.15625 -12.84375 C 19.925781 -11.5625 20.3125 -10.140625 20.3125 -8.578125 C 20.3125 -7.015625 19.925781 -5.59375 19.15625 -4.3125 C 18.394531 -3.039062 17.375 -2.019531 16.09375 -1.25 C 14.820312 -0.488281 13.398438 -0.109375 11.828125 -0.109375 L 3.09375 -0.109375 L 3.09375 -7.359375 L 11.828125 -7.359375 C 12.117188 -7.359375 12.394531 -7.460938 12.65625 -7.671875 C 12.925781 -7.890625 13.0625 -8.191406 13.0625 -8.578125 C 13.0625 -8.867188 12.925781 -9.144531 12.65625 -9.40625 C 12.394531 -9.675781 12.117188 -9.8125 11.828125 -9.8125 L 10.71875 -9.8125 C 9.15625 -9.8125 7.734375 -10.179688 6.453125 -10.921875 C 5.171875 -11.671875 4.144531 -12.675781 3.375 -13.9375 C 2.613281 -15.195312 2.234375 -16.609375 2.234375 -18.171875 C 2.234375 -19.742188 2.613281 -21.164062 3.375 -22.4375 C 4.144531 -23.71875 5.171875 -24.738281 6.453125 -25.5 C 7.734375 -26.269531 9.15625 -26.65625 10.71875 -26.65625 L 19.5625 -26.65625 L 19.5625 -19.40625 L 10.71875 -19.40625 C 10.4375 -19.40625 10.160156 -19.296875 9.890625 -19.078125 C 9.617188 -18.867188 9.484375 -18.566406 9.484375 -18.171875 C 9.484375 -17.890625 9.617188 -17.632812 9.890625 -17.40625 C 10.160156 -17.175781 10.4375 -17.0625 10.71875 -17.0625 Z M 10.71875 -17.0625 "/></g></g></g><g fill="#000000" fill-opacity="1"><g transform="translate(685.17694, 187.183792)"><g><path d="M 20.15625 -17.21875 L 20.15625 -26.546875 L 27.9375 -26.546875 L 27.9375 0 L 20.15625 0 L 20.15625 -9.4375 L 11.296875 -9.4375 L 11.296875 0 L 3.515625 0 L 3.515625 -26.546875 L 11.296875 -26.546875 L 11.296875 -17.21875 Z M 20.15625 -17.21875 "/></g></g></g><g fill="#000000" fill-opacity="1"><g transform="translate(716.731348, 187.183792)"><g><path d="M 9.921875 -26.609375 L 9.921875 0 L 3.3125 0 L 3.3125 -26.609375 Z M 9.921875 -31.03125 C 9.921875 -30.101562 9.597656 -29.316406 8.953125 -28.671875 C 8.316406 -28.035156 7.535156 -27.71875 6.609375 -27.71875 C 5.679688 -27.71875 4.898438 -28.035156 4.265625 -28.671875 C 3.628906 -29.316406 3.3125 -30.101562 3.3125 -31.03125 C 3.3125 -31.945312 3.628906 -32.734375 4.265625 -33.390625 C 4.898438 -34.054688 5.679688 -34.390625 6.609375 -34.390625 C 7.535156 -34.390625 8.316406 -34.054688 8.953125 -33.390625 C 9.597656 -32.734375 9.921875 -31.945312 9.921875 -31.03125 Z M 9.921875 -31.03125 "/></g></g></g><g fill="#000000" fill-opacity="1"><g transform="translate(730.269906, 187.183792)"><g/></g></g><g fill="#000000" fill-opacity="1"><g transform="translate(745.727297, 187.183792)"><g><path d="M 21.8125 -8.6875 L 21.8125 -26.765625 L 29.0625 -26.765625 L 29.0625 -8.6875 L 20.578125 -0.21875 L 15.78125 -5.015625 L 10.875 -0.21875 L 2.5 -8.6875 L 2.5 -26.765625 L 9.75 -26.765625 L 9.75 -8.6875 L 10.984375 -7.671875 L 12.203125 -8.6875 L 12.203125 -26.765625 L 19.359375 -26.765625 L 19.359375 -8.6875 L 20.578125 -7.671875 Z M 21.8125 -8.6875 "/></g></g></g><g fill="#000000" fill-opacity="1"><g transform="translate(777.335072, 187.183792)"><g><path d="M 11.25 -9.390625 L 11.25 -7.78125 L 27.25 -7.78125 L 27.25 -0.046875 L 3.515625 -0.046875 L 3.515625 -26.609375 L 25.265625 -26.609375 L 25.265625 -18.875 L 11.25 -18.875 L 11.25 -17.171875 L 23.296875 -17.171875 L 23.296875 -9.390625 Z M 11.25 -9.390625 "/></g></g></g><g fill="#000000" fill-opacity="1"><g transform="translate(807.397035, 187.183792)"><g><path d="M 24.203125 -18.078125 C 24.203125 -16.265625 23.671875 -14.664062 22.609375 -13.28125 C 23.671875 -11.894531 24.203125 -10.296875 24.203125 -8.484375 C 24.203125 -6.953125 23.835938 -5.554688 23.109375 -4.296875 C 22.378906 -3.035156 21.398438 -2.019531 20.171875 -1.25 C 18.953125 -0.488281 17.59375 -0.0703125 16.09375 0 L 3.515625 0 L 3.515625 -26.546875 L 16.09375 -26.546875 C 17.59375 -26.472656 18.953125 -26.054688 20.171875 -25.296875 C 21.398438 -24.535156 22.378906 -23.53125 23.109375 -22.28125 C 23.835938 -21.039062 24.203125 -19.640625 24.203125 -18.078125 Z M 15.734375 -19.296875 L 10.921875 -19.296875 L 10.921875 -16.84375 L 15.734375 -16.84375 C 16.015625 -16.84375 16.285156 -16.972656 16.546875 -17.234375 C 16.816406 -17.503906 16.953125 -17.785156 16.953125 -18.078125 C 16.953125 -18.460938 16.816406 -18.757812 16.546875 -18.96875 C 16.285156 -19.1875 16.015625 -19.296875 15.734375 -19.296875 Z M 10.921875 -7.25 L 15.734375 -7.25 C 16.015625 -7.25 16.285156 -7.351562 16.546875 -7.5625 C 16.816406 -7.78125 16.953125 -8.085938 16.953125 -8.484375 C 16.953125 -8.765625 16.816406 -9.035156 16.546875 -9.296875 C 16.285156 -9.566406 16.015625 -9.703125 15.734375 -9.703125 L 10.921875 -9.703125 Z M 10.921875 -7.25 "/></g></g></g><g fill="#000000" fill-opacity="1"><g transform="translate(833.994445, 187.183792)"><g><path d="M 10.71875 -17.0625 L 11.828125 -17.0625 C 13.398438 -17.0625 14.820312 -16.675781 16.09375 -15.90625 C 17.375 -15.144531 18.394531 -14.125 19.15625 -12.84375 C 19.925781 -11.5625 20.3125 -10.140625 20.3125 -8.578125 C 20.3125 -7.015625 19.925781 -5.59375 19.15625 -4.3125 C 18.394531 -3.039062 17.375 -2.019531 16.09375 -1.25 C 14.820312 -0.488281 13.398438 -0.109375 11.828125 -0.109375 L 3.09375 -0.109375 L 3.09375 -7.359375 L 11.828125 -7.359375 C 12.117188 -7.359375 12.394531 -7.460938 12.65625 -7.671875 C 12.925781 -7.890625 13.0625 -8.191406 13.0625 -8.578125 C 13.0625 -8.867188 12.925781 -9.144531 12.65625 -9.40625 C 12.394531 -9.675781 12.117188 -9.8125 11.828125 -9.8125 L 10.71875 -9.8125 C 9.15625 -9.8125 7.734375 -10.179688 6.453125 -10.921875 C 5.171875 -11.671875 4.144531 -12.675781 3.375 -13.9375 C 2.613281 -15.195312 2.234375 -16.609375 2.234375 -18.171875 C 2.234375 -19.742188 2.613281 -21.164062 3.375 -22.4375 C 4.144531 -23.71875 5.171875 -24.738281 6.453125 -25.5 C 7.734375 -26.269531 9.15625 -26.65625 10.71875 -26.65625 L 19.5625 -26.65625 L 19.5625 -19.40625 L 10.71875 -19.40625 C 10.4375 -19.40625 10.160156 -19.296875 9.890625 -19.078125 C 9.617188 -18.867188 9.484375 -18.566406 9.484375 -18.171875 C 9.484375 -17.890625 9.617188 -17.632812 9.890625 -17.40625 C 10.160156 -17.175781 10.4375 -17.0625 10.71875 -17.0625 Z M 10.71875 -17.0625 "/></g></g></g><g fill="#000000" fill-opacity="1"><g transform="translate(856.540905, 187.183792)"><g><path d="M 9.921875 -26.609375 L 9.921875 0 L 3.3125 0 L 3.3125 -26.609375 Z M 9.921875 -31.03125 C 9.921875 -30.101562 9.597656 -29.316406 8.953125 -28.671875 C 8.316406 -28.035156 7.535156 -27.71875 6.609375 -27.71875 C 5.679688 -27.71875 4.898438 -28.035156 4.265625 -28.671875 C 3.628906 -29.316406 3.3125 -30.101562 3.3125 -31.03125 C 3.3125 -31.945312 3.628906 -32.734375 4.265625 -33.390625 C 4.898438 -34.054688 5.679688 -34.390625 6.609375 -34.390625 C 7.535156 -34.390625 8.316406 -34.054688 8.953125 -33.390625 C 9.597656 -32.734375 9.921875 -31.945312 9.921875 -31.03125 Z M 9.921875 -31.03125 "/></g></g></g><g fill="#000000" fill-opacity="1"><g transform="translate(870.079464, 187.183792)"><g><path d="M 15.296875 -26.4375 L 21.96875 -26.4375 L 21.96875 -19.828125 L 15.296875 -19.828125 L 15.296875 0.109375 L 7.578125 0.109375 L 7.578125 -19.828125 L 0.90625 -19.828125 L 0.90625 -26.4375 Z M 15.296875 -26.4375 "/></g></g></g><g fill="#000000" fill-opacity="1"><g transform="translate(892.94576, 187.183792)"><g><path d="M 11.25 -9.390625 L 11.25 -7.78125 L 27.25 -7.78125 L 27.25 -0.046875 L 3.515625 -0.046875 L 3.515625 -26.609375 L 25.265625 -26.609375 L 25.265625 -18.875 L 11.25 -18.875 L 11.25 -17.171875 L 23.296875 -17.171875 L 23.296875 -9.390625 Z M 11.25 -9.390625 "/></g></g></g><g fill="#000000" fill-opacity="1"><g transform="translate(923.007723, 187.183792)"><g><path d="M 10.71875 -17.0625 L 11.828125 -17.0625 C 13.398438 -17.0625 14.820312 -16.675781 16.09375 -15.90625 C 17.375 -15.144531 18.394531 -14.125 19.15625 -12.84375 C 19.925781 -11.5625 20.3125 -10.140625 20.3125 -8.578125 C 20.3125 -7.015625 19.925781 -5.59375 19.15625 -4.3125 C 18.394531 -3.039062 17.375 -2.019531 16.09375 -1.25 C 14.820312 -0.488281 13.398438 -0.109375 11.828125 -0.109375 L 3.09375 -0.109375 L 3.09375 -7.359375 L 11.828125 -7.359375 C 12.117188 -7.359375 12.394531 -7.460938 12.65625 -7.671875 C 12.925781 -7.890625 13.0625 -8.191406 13.0625 -8.578125 C 13.0625 -8.867188 12.925781 -9.144531 12.65625 -9.40625 C 12.394531 -9.675781 12.117188 -9.8125 11.828125 -9.8125 L 10.71875 -9.8125 C 9.15625 -9.8125 7.734375 -10.179688 6.453125 -10.921875 C 5.171875 -11.671875 4.144531 -12.675781 3.375 -13.9375 C 2.613281 -15.195312 2.234375 -16.609375 2.234375 -18.171875 C 2.234375 -19.742188 2.613281 -21.164062 3.375 -22.4375 C 4.144531 -23.71875 5.171875 -24.738281 6.453125 -25.5 C 7.734375 -26.269531 9.15625 -26.65625 10.71875 -26.65625 L 19.5625 -26.65625 L 19.5625 -19.40625 L 10.71875 -19.40625 C 10.4375 -19.40625 10.160156 -19.296875 9.890625 -19.078125 C 9.617188 -18.867188 9.484375 -18.566406 9.484375 -18.171875 C 9.484375 -17.890625 9.617188 -17.632812 9.890625 -17.40625 C 10.160156 -17.175781 10.4375 -17.0625 10.71875 -17.0625 Z M 10.71875 -17.0625 "/></g></g></g></svg>